<?xml version="1.0" encoding="UTF-8"?>
<svg xmlns="http://www.w3.org/2000/svg"
     xmlns:xlink="http://www.w3.org/1999/xlink"
     version="1.2"
     width="160mm" height="160mm" viewBox="0 0 160 160"
     stroke="none"
     fill="#000000"
     stroke-width="0.3"
     font-size="3.88"
>
<defs>
  <marker id="arrow" markerWidth="15" markerHeight="7" refX="5" refY="3.5" orient="auto" markerUnits="strokeWidth">
    <path d="M0,0 L15,3.5 L0,7 z" stroke="context-stroke" fill="context-stroke"/>
  </marker>
</defs>
<g stroke-width="0.95" fill="#000000" fill-opacity="0.000" stroke="#D3D3D3" id="img-695c1792-1">
  <g transform="translate(53.97,28.58)">
    <path fill="none" d="M-35.48,7.49 L 35.48 -7.49" class="primitive"/>
  </g>
  <g transform="translate(35.67,64.5)">
    <path fill="none" d="M-19,-23.26 L 19 23.26" class="primitive"/>
  </g>
  <g transform="translate(24.54,77.7)">
    <path fill="none" d="M-9.8,-35.45 L 9.8 35.45" class="primitive"/>
  </g>
  <g transform="translate(34.13,46.7)">
    <path fill="none" d="M-16,-7.34 L 16 7.34" class="primitive"/>
  </g>
  <g transform="translate(51.94,48.63)">
    <path fill="none" d="M-33.55,-9.97 L 33.55 9.97" class="primitive"/>
  </g>
  <g transform="translate(120.64,16.67)">
    <path fill="none" d="M20.8,-2.66 L -20.8 2.66" class="primitive"/>
  </g>
  <g transform="translate(140.87,52.33)">
    <path fill="none" d="M5.03,-33.78 L -5.03 33.78" class="primitive"/>
  </g>
  <g transform="translate(100.79,34.78)">
    <path fill="none" d="M41.1,-19.22 L -41.1 19.22" class="primitive"/>
  </g>
  <g transform="translate(118.61,36.71)">
    <path fill="none" d="M24.01,-20.01 L -24.01 20.01" class="primitive"/>
  </g>
  <g transform="translate(76.31,55.92)">
    <path fill="none" d="M15.91,-31.22 L -15.91 31.22" class="primitive"/>
  </g>
  <g transform="translate(114.84,55.66)">
    <path fill="none" d="M-17.62,-31.07 L 17.62 31.07" class="primitive"/>
  </g>
  <g transform="translate(98.77,64.89)">
    <path fill="none" d="M-3.67,-39.64 L 3.67 39.64" class="primitive"/>
  </g>
  <g transform="translate(92.58,40.05)">
    <path fill="none" d="M1.5,-14.8 L -1.5 14.8" class="primitive"/>
  </g>
  <g transform="translate(96.54,91.58)">
    <path fill="none" d="M-33.26,0.23 L 33.26 -0.23" class="primitive"/>
  </g>
  <g transform="translate(80.47,100.81)">
    <path fill="none" d="M-17.56,-7.02 L 17.56 7.02" class="primitive"/>
  </g>
  <g transform="translate(70.28,119.25)">
    <path fill="none" d="M-10.12,-22.6 L 10.12 22.6" class="primitive"/>
  </g>
  <g transform="translate(56.46,74.04)">
    <path fill="none" d="M1.09,12.55 L -1.09 -12.55" class="primitive"/>
  </g>
  <g transform="translate(118.99,100.55)">
    <path fill="none" d="M11.5,-6.61 L -11.5 6.61" class="primitive"/>
  </g>
  <g transform="translate(108.81,118.99)">
    <path fill="none" d="M22.63,-23.85 L -22.63 23.85" class="primitive"/>
  </g>
  <g transform="translate(85.4,104.77)">
    <path fill="none" d="M44.57,-12.08 L -44.57 12.08" class="primitive"/>
  </g>
  <g transform="translate(92.74,128.22)">
    <path fill="none" d="M7.64,-13.83 L -7.64 13.83" class="primitive"/>
  </g>
  <g transform="translate(69.33,114)">
    <path fill="none" d="M28.36,-3.56 L -28.36 3.56" class="primitive"/>
  </g>
  <g transform="translate(78.92,83.01)">
    <path fill="none" d="M20.48,22.85 L -20.48 -22.85" class="primitive"/>
  </g>
  <g transform="translate(96.73,84.94)">
    <path fill="none" d="M4.91,19.73 L -4.91 -19.73" class="primitive"/>
  </g>
  <g transform="translate(59.15,132.45)">
    <path fill="none" d="M18.9,11.48 L -18.9 -11.48" class="primitive"/>
  </g>
  <g transform="translate(68.74,101.45)">
    <path fill="none" d="M12.28,40.18 L -12.28 -40.18" class="primitive"/>
  </g>
  <g transform="translate(86.55,103.38)">
    <path fill="none" d="M-3.51,38.04 L 3.51 -38.04" class="primitive"/>
  </g>
  <g transform="translate(45.33,87.23)">
    <path fill="none" d="M-8.03,25.96 L 8.03 -25.96" class="primitive"/>
  </g>
  <g transform="translate(63.15,89.16)">
    <path fill="none" d="M-23.79,25.23 L 23.79 -25.23" class="primitive"/>
  </g>
  <g transform="translate(72.73,58.16)">
    <path fill="none" d="M-12.57,-1.36 L 12.57 1.36" class="primitive"/>
  </g>
</g>
<g stroke-width="0.95" stroke="#D3D3D3" id="img-695c1792-2">
</g>
<g font-size="4" stroke="#000000" stroke-opacity="0.000" fill="#000000" id="img-695c1792-3">
</g>
<g stroke-width="0" stroke="#000000" stroke-opacity="0.000" id="img-695c1792-4">
  <g transform="translate(13.33,37.16)" fill="#CD0000">
    <circle cx="0" cy="0" r="5.06" class="primitive"/>
  </g>
  <g transform="translate(146.67,13.33)" fill="#CD0000">
    <circle cx="0" cy="0" r="5.06" class="primitive"/>
  </g>
  <g transform="translate(94.62,20)" fill="#CD0000">
    <circle cx="0" cy="0" r="5.06" class="primitive"/>
  </g>
  <g transform="translate(58.01,91.84)" fill="#CD0000">
    <circle cx="0" cy="0" r="5.06" class="primitive"/>
  </g>
  <g transform="translate(135.06,91.32)" fill="#CD0000">
    <circle cx="0" cy="0" r="5.06" class="primitive"/>
  </g>
  <g transform="translate(102.92,109.78)" fill="#CD0000">
    <circle cx="0" cy="0" r="5.06" class="primitive"/>
  </g>
  <g transform="translate(82.56,146.67)" fill="#CD0000">
    <circle cx="0" cy="0" r="5.06" class="primitive"/>
  </g>
  <g transform="translate(35.75,118.23)" fill="#66CD00">
    <circle cx="0" cy="0" r="5.06" class="primitive"/>
  </g>
  <g transform="translate(54.92,56.23)" fill="#CD0000">
    <circle cx="0" cy="0" r="5.06" class="primitive"/>
  </g>
  <g transform="translate(90.55,60.1)" fill="#CD0000">
    <circle cx="0" cy="0" r="5.06" class="primitive"/>
  </g>
</g>
<g font-size="4" stroke="#000000" stroke-opacity="0.000" fill="#000000" id="img-695c1792-5">
</g>
</svg>
