<?xml version="1.0" encoding="UTF-8"?>
<svg xmlns="http://www.w3.org/2000/svg"
     xmlns:xlink="http://www.w3.org/1999/xlink"
     version="1.2"
     width="160mm" height="160mm" viewBox="0 0 160 160"
     stroke="none"
     fill="#000000"
     stroke-width="0.3"
     font-size="3.88"
>
<defs>
  <marker id="arrow" markerWidth="15" markerHeight="7" refX="5" refY="3.5" orient="auto" markerUnits="strokeWidth">
    <path d="M0,0 L15,3.5 L0,7 z" stroke="context-stroke" fill="context-stroke"/>
  </marker>
</defs>
<g stroke-width="0.95" fill="#000000" fill-opacity="0.000" stroke="#D3D3D3" id="img-5d767359-1">
  <g transform="translate(64.16,88.16)">
    <path fill="none" d="M-10.16,6.8 L 10.16 -6.8" class="primitive"/>
  </g>
  <g transform="translate(58.1,122.28)">
    <path fill="none" d="M-6.75,-19.41 L 6.75 19.41" class="primitive"/>
  </g>
  <g transform="translate(85.44,119.83)">
    <path fill="none" d="M-31.32,-19.18 L 31.32 19.18" class="primitive"/>
  </g>
  <g transform="translate(76.14,104.02)">
    <path fill="none" d="M-21.38,-4.94 L 21.38 4.94" class="primitive"/>
  </g>
  <g transform="translate(77.4,55.61)">
    <path fill="none" d="M-24.89,37.88 L 24.89 -37.88" class="primitive"/>
  </g>
  <g transform="translate(50.01,64.32)">
    <path fill="none" d="M-0.33,28.31 L 0.33 -28.31" class="primitive"/>
  </g>
  <g transform="translate(31.48,87.29)">
    <path fill="none" d="M13.59,7.94 L -13.59 -7.94" class="primitive"/>
  </g>
  <g transform="translate(72.64,112.55)">
    <path fill="none" d="M5.14,-28.93 L -5.14 28.93" class="primitive"/>
  </g>
  <g transform="translate(99.97,110.1)">
    <path fill="none" d="M-18.34,-27.29 L 18.34 27.29" class="primitive"/>
  </g>
  <g transform="translate(112.68,85.14)">
    <path fill="none" d="M-28.81,-5.69 L 28.81 5.69" class="primitive"/>
  </g>
  <g transform="translate(91.94,45.88)">
    <path fill="none" d="M-11.26,27.67 L 11.26 -27.67" class="primitive"/>
  </g>
  <g transform="translate(64.55,54.58)">
    <path fill="none" d="M11.46,19.32 L -11.46 -19.32" class="primitive"/>
  </g>
  <g transform="translate(46.02,77.56)">
    <path fill="none" d="M27.41,0.73 L -27.41 -0.73" class="primitive"/>
  </g>
  <g transform="translate(93.91,144.21)">
    <path fill="none" d="M-22.08,1.98 L 22.08 -1.98" class="primitive"/>
  </g>
  <g transform="translate(106.62,119.26)">
    <path fill="none" d="M-35.69,24.43 L 35.69 -24.43" class="primitive"/>
  </g>
  <g transform="translate(84.62,128.41)">
    <path fill="none" d="M-14.33,14.51 L 14.33 -14.51" class="primitive"/>
  </g>
  <g transform="translate(39.96,111.68)">
    <path fill="none" d="M23.43,30.79 L -23.43 -30.79" class="primitive"/>
  </g>
  <g transform="translate(133.96,116.81)">
    <path fill="none" d="M-10.32,20.26 L 10.32 -20.26" class="primitive"/>
  </g>
  <g transform="translate(111.95,125.96)">
    <path fill="none" d="M6.63,11.26 L -6.63 -11.26" class="primitive"/>
  </g>
  <g transform="translate(116.38,98.58)">
    <path fill="none" d="M4.28,37.95 L -4.28 -37.95" class="primitive"/>
  </g>
  <g transform="translate(124.66,101)">
    <path fill="none" d="M17.14,-7.13 L -17.14 7.13" class="primitive"/>
  </g>
  <g transform="translate(129.09,73.62)">
    <path fill="none" d="M13.92,14.43 L -13.92 -14.43" class="primitive"/>
  </g>
  <g transform="translate(125.92,52.59)">
    <path fill="none" d="M18.28,34.6 L -18.28 -34.6" class="primitive"/>
  </g>
  <g transform="translate(107.08,82.77)">
    <path fill="none" d="M-3.59,22.18 L 3.59 -22.18" class="primitive"/>
  </g>
  <g transform="translate(76.52,70.44)">
    <path fill="none" d="M23.23,35.31 L -23.23 -35.31" class="primitive"/>
  </g>
  <g transform="translate(108.35,34.36)">
    <path fill="none" d="M2.38,15.82 L -2.38 -15.82" class="primitive"/>
  </g>
  <g transform="translate(80.95,43.07)">
    <path fill="none" d="M25.67,10.36 L -25.67 -10.36" class="primitive"/>
  </g>
  <g transform="translate(62.42,66.04)">
    <path fill="none" d="M43.94,-9.53 L -43.94 9.53" class="primitive"/>
  </g>
  <g transform="translate(77.79,22.03)">
    <path fill="none" d="M22.37,-7.11 L -22.37 7.11" class="primitive"/>
  </g>
  <g transform="translate(31.86,53.71)">
    <path fill="none" d="M15.22,-18.88 L -15.22 18.88" class="primitive"/>
  </g>
</g>
<g stroke-width="0.95" stroke="#D3D3D3" id="img-5d767359-2">
</g>
<g font-size="4" stroke="#000000" stroke-opacity="0.000" fill="#000000" id="img-5d767359-3">
</g>
<g stroke-width="0" stroke="#000000" stroke-opacity="0.000" id="img-5d767359-4">
  <g transform="translate(49.62,97.9)" fill="#FF00FF">
    <circle cx="0" cy="0" r="5.06" class="primitive"/>
  </g>
  <g transform="translate(78.7,78.43)" fill="#FF00FF">
    <circle cx="0" cy="0" r="5.06" class="primitive"/>
  </g>
  <g transform="translate(66.58,146.67)" fill="#FF00FF">
    <circle cx="0" cy="0" r="5.06" class="primitive"/>
  </g>
  <g transform="translate(121.25,141.76)" fill="#FF00FF">
    <circle cx="0" cy="0" r="5.06" class="primitive"/>
  </g>
  <g transform="translate(146.67,91.85)" fill="#FF00FF">
    <circle cx="0" cy="0" r="5.06" class="primitive"/>
  </g>
  <g transform="translate(102.65,110.15)" fill="#FF00FF">
    <circle cx="0" cy="0" r="5.06" class="primitive"/>
  </g>
  <g transform="translate(111.52,55.4)" fill="#FF00FF">
    <circle cx="0" cy="0" r="5.06" class="primitive"/>
  </g>
  <g transform="translate(105.18,13.33)" fill="#FF00FF">
    <circle cx="0" cy="0" r="5.06" class="primitive"/>
  </g>
  <g transform="translate(50.39,30.73)" fill="#FF00FF">
    <circle cx="0" cy="0" r="5.06" class="primitive"/>
  </g>
  <g transform="translate(13.33,76.69)" fill="#FF00FF">
    <circle cx="0" cy="0" r="5.06" class="primitive"/>
  </g>
</g>
<g font-size="4" stroke="#000000" stroke-opacity="0.000" fill="#000000" id="img-5d767359-5">
</g>
</svg>
