<?xml version="1.0" encoding="UTF-8"?>
<svg xmlns="http://www.w3.org/2000/svg"
     xmlns:xlink="http://www.w3.org/1999/xlink"
     version="1.2"
     width="160mm" height="160mm" viewBox="0 0 160 160"
     stroke="none"
     fill="#000000"
     stroke-width="0.3"
     font-size="3.88"
>
<defs>
  <marker id="arrow" markerWidth="15" markerHeight="7" refX="5" refY="3.5" orient="auto" markerUnits="strokeWidth">
    <path d="M0,0 L15,3.5 L0,7 z" stroke="context-stroke" fill="context-stroke"/>
  </marker>
</defs>
<g stroke-width="0.95" fill="#000000" fill-opacity="0.000" stroke="#D3D3D3" id="img-9050b363-1">
  <g transform="translate(75.44,119.99)">
    <path fill="none" d="M25.12,23.11 L -25.12 -23.11" class="primitive"/>
  </g>
  <g transform="translate(110.66,112.56)">
    <path fill="none" d="M-5.28,28.92 L 5.28 -28.92" class="primitive"/>
  </g>
  <g transform="translate(125.55,110.07)">
    <path fill="none" d="M-18.48,32.03 L 18.48 -32.03" class="primitive"/>
  </g>
  <g transform="translate(98.47,123.1)">
    <path fill="none" d="M4.67,18.46 L -4.67 -18.46" class="primitive"/>
  </g>
  <g transform="translate(89.67,106.9)">
    <path fill="none" d="M12.93,34.82 L -12.93 -34.82" class="primitive"/>
  </g>
  <g transform="translate(29.89,73.08)">
    <path fill="none" d="M-13.22,-16.15 L 13.22 16.15" class="primitive"/>
  </g>
  <g transform="translate(42.59,33.1)">
    <path fill="none" d="M-24.89,16.81 L 24.89 -16.81" class="primitive"/>
  </g>
  <g transform="translate(52.92,76.19)">
    <path fill="none" d="M-35.05,-20.66 L 35.05 20.66" class="primitive"/>
  </g>
  <g transform="translate(44.12,60)">
    <path fill="none" d="M-25.65,-5.95 L 25.65 5.95" class="primitive"/>
  </g>
  <g transform="translate(81.66,85.88)">
    <path fill="none" d="M-30.06,6.34 L 30.06 -6.34" class="primitive"/>
  </g>
  <g transform="translate(59.14,53.32)">
    <path fill="none" d="M-11.1,34.97 L 11.1 -34.97" class="primitive"/>
  </g>
  <g transform="translate(74.56,61.14)">
    <path fill="none" d="M-24.65,28.2 L 24.65 -28.2" class="primitive"/>
  </g>
  <g transform="translate(60.68,80.22)">
    <path fill="none" d="M-10.36,9.52 L 10.36 -9.52" class="primitive"/>
  </g>
  <g transform="translate(94.36,45.89)">
    <path fill="none" d="M19.52,28.23 L -19.52 -28.23" class="primitive"/>
  </g>
  <g transform="translate(109.78,53.71)">
    <path fill="none" d="M5.65,19.68 L -5.65 -19.68" class="primitive"/>
  </g>
  <g transform="translate(127.72,48.24)">
    <path fill="none" d="M-9.05,25.25 L 9.05 -25.25" class="primitive"/>
  </g>
  <g transform="translate(104.7,88.99)">
    <path fill="none" d="M8.2,-7.09 L -8.2 7.09" class="primitive"/>
  </g>
  <g transform="translate(87.26,21.15)">
    <path fill="none" d="M-10.72,-5.44 L 10.72 5.44" class="primitive"/>
  </g>
  <g transform="translate(105.19,15.68)">
    <path fill="none" d="M-28.1,-1.98 L 28.1 1.98" class="primitive"/>
  </g>
  <g transform="translate(109.25,43.41)">
    <path fill="none" d="M-33.31,-26.77 L 33.31 26.77" class="primitive"/>
  </g>
  <g transform="translate(120.61,23.5)">
    <path fill="none" d="M-12.9,3.93 L 12.9 -3.93" class="primitive"/>
  </g>
  <g transform="translate(124.67,51.22)">
    <path fill="none" d="M-18.29,-18.5 L 18.29 18.5" class="primitive"/>
  </g>
  <g transform="translate(97.59,64.25)">
    <path fill="none" d="M4.33,-30.06 L -4.33 30.06" class="primitive"/>
  </g>
  <g transform="translate(88.79,48.05)">
    <path fill="none" d="M10.78,-14.82 L -10.78 14.82" class="primitive"/>
  </g>
  <g transform="translate(142.61,45.75)">
    <path fill="none" d="M-3.3,-22.51 L 3.3 22.51" class="primitive"/>
  </g>
  <g transform="translate(115.53,58.78)">
    <path fill="none" d="M20.43,-36.16 L -20.43 36.16" class="primitive"/>
  </g>
  <g transform="translate(106.73,42.58)">
    <path fill="none" d="M27.65,-21.33 L -27.65 21.33" class="primitive"/>
  </g>
  <g transform="translate(119.59,86.5)">
    <path fill="none" d="M22.33,-10.74 L -22.33 10.74" class="primitive"/>
  </g>
  <g transform="translate(110.79,70.31)">
    <path fill="none" d="M30.63,2.71 L -30.63 -2.71" class="primitive"/>
  </g>
  <g transform="translate(83.71,83.33)">
    <path fill="none" d="M6.28,11.57 L -6.28 -11.57" class="primitive"/>
  </g>
</g>
<g stroke-width="0.95" stroke="#D3D3D3" id="img-9050b363-2">
</g>
<g font-size="4" stroke="#000000" stroke-opacity="0.000" fill="#000000" id="img-9050b363-3">
</g>
<g stroke-width="0" stroke="#000000" stroke-opacity="0.000" id="img-9050b363-4">
  <g transform="translate(104.43,146.67)" fill="#CD0000">
    <circle cx="0" cy="0" r="5.06" class="primitive"/>
  </g>
  <g transform="translate(13.33,52.86)" fill="#CD0000">
    <circle cx="0" cy="0" r="5.06" class="primitive"/>
  </g>
  <g transform="translate(46.44,93.31)" fill="#CD0000">
    <circle cx="0" cy="0" r="5.06" class="primitive"/>
  </g>
  <g transform="translate(116.88,78.45)" fill="#CD0000">
    <circle cx="0" cy="0" r="5.06" class="primitive"/>
  </g>
  <g transform="translate(71.84,13.33)" fill="#CD0000">
    <circle cx="0" cy="0" r="5.06" class="primitive"/>
  </g>
  <g transform="translate(102.67,28.97)" fill="#CD0000">
    <circle cx="0" cy="0" r="5.06" class="primitive"/>
  </g>
  <g transform="translate(138.55,18.03)" fill="#CD0000">
    <circle cx="0" cy="0" r="5.06" class="primitive"/>
  </g>
  <g transform="translate(146.67,73.48)" fill="#66CD00">
    <circle cx="0" cy="0" r="5.06" class="primitive"/>
  </g>
  <g transform="translate(92.51,99.53)" fill="#CD0000">
    <circle cx="0" cy="0" r="5.06" class="primitive"/>
  </g>
  <g transform="translate(74.91,67.14)" fill="#CD0000">
    <circle cx="0" cy="0" r="5.06" class="primitive"/>
  </g>
</g>
<g font-size="4" stroke="#000000" stroke-opacity="0.000" fill="#000000" id="img-9050b363-5">
</g>
</svg>
