<?xml version="1.0" encoding="UTF-8"?>
<svg xmlns="http://www.w3.org/2000/svg"
     xmlns:xlink="http://www.w3.org/1999/xlink"
     version="1.2"
     width="160mm" height="160mm" viewBox="0 0 160 160"
     stroke="none"
     fill="#000000"
     stroke-width="0.3"
     font-size="3.88"
>
<defs>
  <marker id="arrow" markerWidth="15" markerHeight="7" refX="5" refY="3.5" orient="auto" markerUnits="strokeWidth">
    <path d="M0,0 L15,3.5 L0,7 z" stroke="context-stroke" fill="context-stroke"/>
  </marker>
</defs>
<g stroke-width="0.95" fill="#000000" fill-opacity="0.000" stroke="#D3D3D3" id="img-914b7108-1">
  <g transform="translate(59.57,122.72)">
    <path fill="none" d="M14.71,1.11 L -14.71 -1.11" class="primitive"/>
  </g>
  <g transform="translate(97.57,135.45)">
    <path fill="none" d="M-13.56,-8.43 L 13.56 8.43" class="primitive"/>
  </g>
  <g transform="translate(99.5,68.78)">
    <path fill="none" d="M-18.18,50.49 L 18.18 -50.49" class="primitive"/>
  </g>
  <g transform="translate(87.81,86.33)">
    <path fill="none" d="M-7.15,32.75 L 7.15 -32.75" class="primitive"/>
  </g>
  <g transform="translate(72.76,77.85)">
    <path fill="none" d="M6.01,41.17 L -6.01 -41.17" class="primitive"/>
  </g>
  <g transform="translate(26.47,82.44)">
    <path fill="none" d="M-11.44,-33.78 L 11.44 33.78" class="primitive"/>
  </g>
  <g transform="translate(43.41,61.99)">
    <path fill="none" d="M-25.58,-15.58 L 25.58 15.58" class="primitive"/>
  </g>
  <g transform="translate(54.71,46.05)">
    <path fill="none" d="M-36.11,-2.07 L 36.11 2.07" class="primitive"/>
  </g>
  <g transform="translate(39.66,37.57)">
    <path fill="none" d="M-21.19,4.91 L 21.19 -4.91" class="primitive"/>
  </g>
  <g transform="translate(77.61,133.94)">
    <path fill="none" d="M-33,-11.05 L 33 11.05" class="primitive"/>
  </g>
  <g transform="translate(56.55,100.77)">
    <path fill="none" d="M-13.58,16.39 L 13.58 -16.39" class="primitive"/>
  </g>
  <g transform="translate(79.46,107.16)">
    <path fill="none" d="M-34.89,12.31 L 34.89 -12.31" class="primitive"/>
  </g>
  <g transform="translate(52.79,76.34)">
    <path fill="none" d="M-11.7,39.82 L 11.7 -39.82" class="primitive"/>
  </g>
  <g transform="translate(94.55,113.49)">
    <path fill="none" d="M18.24,28.73 L -18.24 -28.73" class="primitive"/>
  </g>
  <g transform="translate(117.46,119.88)">
    <path fill="none" d="M-1.49,21.53 L 1.49 -21.53" class="primitive"/>
  </g>
  <g transform="translate(131.14,102.71)">
    <path fill="none" d="M-13.77,38.99 L 13.77 -38.99" class="primitive"/>
  </g>
  <g transform="translate(105.84,97.55)">
    <path fill="none" d="M8.74,43.95 L -8.74 -43.95" class="primitive"/>
  </g>
  <g transform="translate(96.4,86.71)">
    <path fill="none" d="M-17.84,-4.97 L 17.84 4.97" class="primitive"/>
  </g>
  <g transform="translate(110.08,69.54)">
    <path fill="none" d="M-31.53,9.29 L 31.53 -9.29" class="primitive"/>
  </g>
  <g transform="translate(96.47,46.82)">
    <path fill="none" d="M-20,29.15 L 20 -29.15" class="primitive"/>
  </g>
  <g transform="translate(132.99,75.93)">
    <path fill="none" d="M-10.39,13.05 L 10.39 -13.05" class="primitive"/>
  </g>
  <g transform="translate(119.39,53.21)">
    <path fill="none" d="M-0.06,34.61 L 0.06 -34.61" class="primitive"/>
  </g>
  <g transform="translate(107.7,70.76)">
    <path fill="none" d="M9.19,17.66 L -9.19 -17.66" class="primitive"/>
  </g>
  <g transform="translate(92.65,62.28)">
    <path fill="none" d="M23.22,26.83 L -23.22 -26.83" class="primitive"/>
  </g>
  <g transform="translate(133.06,36.04)">
    <path fill="none" d="M10.9,18.19 L -10.9 -18.19" class="primitive"/>
  </g>
  <g transform="translate(121.37,53.59)">
    <path fill="none" d="M20.13,4.11 L -20.13 -4.11" class="primitive"/>
  </g>
  <g transform="translate(106.33,45.11)">
    <path fill="none" d="M35.35,11.96 L -35.35 -11.96" class="primitive"/>
  </g>
  <g transform="translate(107.77,30.88)">
    <path fill="none" d="M8.77,-13.16 L -8.77 13.16" class="primitive"/>
  </g>
  <g transform="translate(92.72,22.4)">
    <path fill="none" d="M21.75,-7.37 L -21.75 7.37" class="primitive"/>
  </g>
  <g transform="translate(81.03,39.95)">
    <path fill="none" d="M10.46,5.89 L -10.46 -5.89" class="primitive"/>
  </g>
</g>
<g stroke-width="0.95" stroke="#D3D3D3" id="img-914b7108-2">
</g>
<g font-size="4" stroke="#000000" stroke-opacity="0.000" fill="#000000" id="img-914b7108-3">
</g>
<g stroke-width="0" stroke="#000000" stroke-opacity="0.000" id="img-914b7108-4">
  <g transform="translate(79.54,124.23)" fill="#CD0000">
    <circle cx="0" cy="0" r="5.06" class="primitive"/>
  </g>
  <g transform="translate(13.33,43.67)" fill="#CD0000">
    <circle cx="0" cy="0" r="5.06" class="primitive"/>
  </g>
  <g transform="translate(39.6,121.22)" fill="#CD0000">
    <circle cx="0" cy="0" r="5.06" class="primitive"/>
  </g>
  <g transform="translate(115.61,146.67)" fill="#CD0000">
    <circle cx="0" cy="0" r="5.06" class="primitive"/>
  </g>
  <g transform="translate(73.49,80.32)" fill="#CD0000">
    <circle cx="0" cy="0" r="5.06" class="primitive"/>
  </g>
  <g transform="translate(119.32,93.1)" fill="#CD0000">
    <circle cx="0" cy="0" r="5.06" class="primitive"/>
  </g>
  <g transform="translate(146.67,58.76)" fill="#CD0000">
    <circle cx="0" cy="0" r="5.06" class="primitive"/>
  </g>
  <g transform="translate(119.46,13.33)" fill="#66CD00">
    <circle cx="0" cy="0" r="5.06" class="primitive"/>
  </g>
  <g transform="translate(96.08,48.42)" fill="#CD0000">
    <circle cx="0" cy="0" r="5.06" class="primitive"/>
  </g>
  <g transform="translate(65.98,31.47)" fill="#CD0000">
    <circle cx="0" cy="0" r="5.06" class="primitive"/>
  </g>
</g>
<g font-size="4" stroke="#000000" stroke-opacity="0.000" fill="#000000" id="img-914b7108-5">
</g>
</svg>
