<?xml version="1.0" encoding="UTF-8"?>
<svg xmlns="http://www.w3.org/2000/svg"
     xmlns:xlink="http://www.w3.org/1999/xlink"
     version="1.2"
     width="160mm" height="160mm" viewBox="0 0 160 160"
     stroke="none"
     fill="#000000"
     stroke-width="0.3"
     font-size="3.88"
>
<defs>
  <marker id="arrow" markerWidth="15" markerHeight="7" refX="5" refY="3.5" orient="auto" markerUnits="strokeWidth">
    <path d="M0,0 L15,3.5 L0,7 z" stroke="context-stroke" fill="context-stroke"/>
  </marker>
</defs>
<g stroke-width="0.95" fill="#000000" fill-opacity="0.000" stroke="#D3D3D3" id="img-3737e079-1">
  <g transform="translate(68.91,139.93)">
    <path fill="none" d="M-41.85,5.99 L 41.85 -5.99" class="primitive"/>
  </g>
  <g transform="translate(48.66,132.91)">
    <path fill="none" d="M-22.12,11.35 L 22.12 -11.35" class="primitive"/>
  </g>
  <g transform="translate(17.59,95.04)">
    <path fill="none" d="M3.82,46.37 L -3.82 -46.37" class="primitive"/>
  </g>
  <g transform="translate(26.18,119.5)">
    <path fill="none" d="M-3.51,21.96 L 3.51 -21.96" class="primitive"/>
  </g>
  <g transform="translate(41.46,111.62)">
    <path fill="none" d="M-17.04,30.45 L 17.04 -30.45" class="primitive"/>
  </g>
  <g transform="translate(131.33,109.92)">
    <path fill="none" d="M12.44,-18.86 L -12.44 18.86" class="primitive"/>
  </g>
  <g transform="translate(130.8,59.79)">
    <path fill="none" d="M13.19,22.33 L -13.19 -22.33" class="primitive"/>
  </g>
  <g transform="translate(88.59,89.49)">
    <path fill="none" d="M52.81,-2.58 L -52.81 2.58" class="primitive"/>
  </g>
  <g transform="translate(103.87,81.61)">
    <path fill="none" d="M37.56,4.43 L -37.56 -4.43" class="primitive"/>
  </g>
  <g transform="translate(95.73,126.17)">
    <path fill="none" d="M15.28,5.29 L -15.28 -5.29" class="primitive"/>
  </g>
  <g transform="translate(115.46,83.05)">
    <path fill="none" d="M0.47,44.86 L -0.47 -44.86" class="primitive"/>
  </g>
  <g transform="translate(103.72,98.35)">
    <path fill="none" d="M10.52,29.87 L -10.52 -29.87" class="primitive"/>
  </g>
  <g transform="translate(88.53,104.88)">
    <path fill="none" d="M23.79,24.53 L -23.79 -24.53" class="primitive"/>
  </g>
  <g transform="translate(95.2,76.03)">
    <path fill="none" d="M-17.54,38.32 L 17.54 -38.32" class="primitive"/>
  </g>
  <g transform="translate(83.46,91.33)">
    <path fill="none" d="M-6.54,22.76 L 6.54 -22.76" class="primitive"/>
  </g>
  <g transform="translate(64.34,66.24)">
    <path fill="none" d="M10.04,47.75 L -10.04 -47.75" class="primitive"/>
  </g>
  <g transform="translate(52.99,105.74)">
    <path fill="none" d="M17.95,10.71 L -17.95 -10.71" class="primitive"/>
  </g>
  <g transform="translate(103.19,48.21)">
    <path fill="none" d="M8.53,-11.11 L -8.53 11.11" class="primitive"/>
  </g>
  <g transform="translate(84.08,23.13)">
    <path fill="none" d="M25.83,8.2 L -25.83 -8.2" class="primitive"/>
  </g>
  <g transform="translate(64.13,38.17)">
    <path fill="none" d="M45.56,-4.71 L -45.56 4.71" class="primitive"/>
  </g>
  <g transform="translate(72.34,38.42)">
    <path fill="none" d="M15.92,20.89 L -15.92 -20.89" class="primitive"/>
  </g>
  <g transform="translate(52.39,53.46)">
    <path fill="none" d="M33.95,8.73 L -33.95 -8.73" class="primitive"/>
  </g>
  <g transform="translate(60.98,77.92)">
    <path fill="none" d="M25.7,-12.16 L -25.7 12.16" class="primitive"/>
  </g>
  <g transform="translate(76.26,70.04)">
    <path fill="none" d="M10.35,-4.45 L -10.35 4.45" class="primitive"/>
  </g>
  <g transform="translate(33.28,28.38)">
    <path fill="none" d="M15.74,-11.87 L -15.74 11.87" class="primitive"/>
  </g>
  <g transform="translate(41.87,52.83)">
    <path fill="none" d="M9.9,-34.43 L -9.9 34.43" class="primitive"/>
  </g>
  <g transform="translate(57.14,44.95)">
    <path fill="none" d="M-3.28,-26.39 L 3.28 26.39" class="primitive"/>
  </g>
  <g transform="translate(21.92,67.88)">
    <path fill="none" d="M-6.84,-19.48 L 6.84 19.48" class="primitive"/>
  </g>
  <g transform="translate(37.2,59.99)">
    <path fill="none" d="M-19.54,-13.57 L 19.54 13.57" class="primitive"/>
  </g>
  <g transform="translate(45.79,84.45)">
    <path fill="none" d="M-10.59,5.47 L 10.59 -5.47" class="primitive"/>
  </g>
</g>
<g stroke-width="0.95" stroke="#D3D3D3" id="img-3737e079-2">
</g>
<g font-size="4" stroke="#000000" stroke-opacity="0.000" fill="#000000" id="img-3737e079-3">
</g>
<g stroke-width="0" stroke="#000000" stroke-opacity="0.000" id="img-3737e079-4">
  <g transform="translate(21.84,146.67)" fill="#009ACD">
    <circle cx="0" cy="0" r="5.06" class="primitive"/>
  </g>
  <g transform="translate(146.67,86.66)" fill="#CD0000">
    <circle cx="0" cy="0" r="5.06" class="primitive"/>
  </g>
  <g transform="translate(115.98,133.19)" fill="#CD0000">
    <circle cx="0" cy="0" r="5.06" class="primitive"/>
  </g>
  <g transform="translate(75.47,119.15)" fill="#CD0000">
    <circle cx="0" cy="0" r="5.06" class="primitive"/>
  </g>
  <g transform="translate(114.93,32.92)" fill="#66CD00">
    <circle cx="0" cy="0" r="5.06" class="primitive"/>
  </g>
  <g transform="translate(91.45,63.51)" fill="#66CD00">
    <circle cx="0" cy="0" r="5.06" class="primitive"/>
  </g>
  <g transform="translate(53.22,13.33)" fill="#66CD00">
    <circle cx="0" cy="0" r="5.06" class="primitive"/>
  </g>
  <g transform="translate(13.33,43.42)" fill="#66CD00">
    <circle cx="0" cy="0" r="5.06" class="primitive"/>
  </g>
  <g transform="translate(30.52,92.33)" fill="#CD0000">
    <circle cx="0" cy="0" r="5.06" class="primitive"/>
  </g>
  <g transform="translate(61.07,76.57)" fill="#CD0000">
    <circle cx="0" cy="0" r="5.06" class="primitive"/>
  </g>
</g>
<g font-size="4" stroke="#000000" stroke-opacity="0.000" fill="#000000" id="img-3737e079-5">
</g>
</svg>
