<?xml version="1.0" encoding="UTF-8"?>
<svg xmlns="http://www.w3.org/2000/svg"
     xmlns:xlink="http://www.w3.org/1999/xlink"
     version="1.2"
     width="160mm" height="160mm" viewBox="0 0 160 160"
     stroke="none"
     fill="#000000"
     stroke-width="0.3"
     font-size="3.88"
>
<defs>
  <marker id="arrow" markerWidth="15" markerHeight="7" refX="5" refY="3.5" orient="auto" markerUnits="strokeWidth">
    <path d="M0,0 L15,3.5 L0,7 z" stroke="context-stroke" fill="context-stroke"/>
  </marker>
</defs>
<g stroke-width="0.95" fill="#000000" fill-opacity="0.000" stroke="#D3D3D3" id="img-8fe8328e-1">
  <g transform="translate(64.95,60.8)">
    <path fill="none" d="M-4.86,-12.29 L 4.86 12.29" class="primitive"/>
  </g>
  <g transform="translate(79.42,28.47)">
    <path fill="none" d="M-16.96,12.08 L 16.96 -12.08" class="primitive"/>
  </g>
  <g transform="translate(102.41,45.09)">
    <path fill="none" d="M-38.99,-1.31 L 38.99 1.31" class="primitive"/>
  </g>
  <g transform="translate(85.04,54.13)">
    <path fill="none" d="M-21.97,-8.61 L 21.97 8.61" class="primitive"/>
  </g>
  <g transform="translate(59.73,95.14)">
    <path fill="none" d="M-1.41,-46.26 L 1.41 46.26" class="primitive"/>
  </g>
  <g transform="translate(39.21,73.69)">
    <path fill="none" d="M16.14,-25.63 L -16.14 25.63" class="primitive"/>
  </g>
  <g transform="translate(35.75,43.93)">
    <path fill="none" d="M17.14,-0.25 L -17.14 0.25" class="primitive"/>
  </g>
  <g transform="translate(86.21,45.66)">
    <path fill="none" d="M-12.31,27.52 L 12.31 -27.52" class="primitive"/>
  </g>
  <g transform="translate(109.2,62.28)">
    <path fill="none" d="M-32.6,13.67 L 32.6 -13.67" class="primitive"/>
  </g>
  <g transform="translate(107.28,90.52)">
    <path fill="none" d="M-30.57,-10.77 L 30.57 10.77" class="primitive"/>
  </g>
  <g transform="translate(66.52,112.33)">
    <path fill="none" d="M4.43,-29.13 L -4.43 29.13" class="primitive"/>
  </g>
  <g transform="translate(46,90.88)">
    <path fill="none" d="M21.03,-10.53 L -21.03 10.53" class="primitive"/>
  </g>
  <g transform="translate(42.54,61.13)">
    <path fill="none" d="M24.64,14.23 L -24.64 -14.23" class="primitive"/>
  </g>
  <g transform="translate(123.67,29.95)">
    <path fill="none" d="M-18.73,-13.53 L 18.73 13.53" class="primitive"/>
  </g>
  <g transform="translate(121.75,58.19)">
    <path fill="none" d="M-18.83,-40.08 L 18.83 40.08" class="primitive"/>
  </g>
  <g transform="translate(106.3,39)">
    <path fill="none" d="M-4.5,-20.52 L 4.5 20.52" class="primitive"/>
  </g>
  <g transform="translate(57,28.8)">
    <path fill="none" d="M38.7,-13.71 L -38.7 13.71" class="primitive"/>
  </g>
  <g transform="translate(144.74,74.81)">
    <path fill="none" d="M1.56,-22.98 L -1.56 22.98" class="primitive"/>
  </g>
  <g transform="translate(129.29,55.62)">
    <path fill="none" d="M12.7,-6.61 L -12.7 6.61" class="primitive"/>
  </g>
  <g transform="translate(119.25,81.28)">
    <path fill="none" d="M24.15,-30.57 L -24.15 30.57" class="primitive"/>
  </g>
  <g transform="translate(127.37,83.85)">
    <path fill="none" d="M12.14,15.09 L -12.14 -15.09" class="primitive"/>
  </g>
  <g transform="translate(117.33,109.52)">
    <path fill="none" d="M20.38,-5.18 L -20.38 5.18" class="primitive"/>
  </g>
  <g transform="translate(102.06,124.86)">
    <path fill="none" d="M36.11,-19.32 L -36.11 19.32" class="primitive"/>
  </g>
  <g transform="translate(101.88,90.33)">
    <path fill="none" d="M8.12,-20.76 L -8.12 20.76" class="primitive"/>
  </g>
  <g transform="translate(66.09,84.22)">
    <path fill="none" d="M40.99,-17.49 L -40.99 17.49" class="primitive"/>
  </g>
  <g transform="translate(76.57,131.33)">
    <path fill="none" d="M11.55,-11.6 L -11.55 11.6" class="primitive"/>
  </g>
  <g transform="translate(56.05,109.88)">
    <path fill="none" d="M30.6,5.22 L -30.6 -5.22" class="primitive"/>
  </g>
  <g transform="translate(52.59,80.13)">
    <path fill="none" d="M35.36,32.31 L -35.36 -32.31" class="primitive"/>
  </g>
  <g transform="translate(40.78,125.22)">
    <path fill="none" d="M16.88,17.64 L -16.88 -17.64" class="primitive"/>
  </g>
  <g transform="translate(16.79,74.02)">
    <path fill="none" d="M2.85,24.52 L -2.85 -24.52" class="primitive"/>
  </g>
</g>
<g stroke-width="0.95" stroke="#D3D3D3" id="img-8fe8328e-2">
</g>
<g font-size="4" stroke="#000000" stroke-opacity="0.000" fill="#000000" id="img-8fe8328e-3">
</g>
<g stroke-width="0" stroke="#000000" stroke-opacity="0.000" id="img-8fe8328e-4">
  <g transform="translate(58.16,43.6)" fill="#FF00FF">
    <circle cx="0" cy="0" r="5.06" class="primitive"/>
  </g>
  <g transform="translate(71.74,77.99)" fill="#FF00FF">
    <circle cx="0" cy="0" r="5.06" class="primitive"/>
  </g>
  <g transform="translate(100.67,13.33)" fill="#FF00FF">
    <circle cx="0" cy="0" r="5.06" class="primitive"/>
  </g>
  <g transform="translate(146.67,46.58)" fill="#FF00FF">
    <circle cx="0" cy="0" r="5.06" class="primitive"/>
  </g>
  <g transform="translate(142.82,103.04)" fill="#FF00FF">
    <circle cx="0" cy="0" r="5.06" class="primitive"/>
  </g>
  <g transform="translate(111.92,64.66)" fill="#FF00FF">
    <circle cx="0" cy="0" r="5.06" class="primitive"/>
  </g>
  <g transform="translate(91.84,115.99)" fill="#FF00FF">
    <circle cx="0" cy="0" r="5.06" class="primitive"/>
  </g>
  <g transform="translate(61.3,146.67)" fill="#FF00FF">
    <circle cx="0" cy="0" r="5.06" class="primitive"/>
  </g>
  <g transform="translate(20.26,103.77)" fill="#FF00FF">
    <circle cx="0" cy="0" r="5.06" class="primitive"/>
  </g>
  <g transform="translate(13.33,44.26)" fill="#FF00FF">
    <circle cx="0" cy="0" r="5.06" class="primitive"/>
  </g>
</g>
<g font-size="4" stroke="#000000" stroke-opacity="0.000" fill="#000000" id="img-8fe8328e-5">
</g>
</svg>
